<?xml version="1.0" encoding="UTF-8" standalone="no"?>
<!-- Created with Inkscape (http://www.inkscape.org/) -->

<svg
   xmlns:dc="http://purl.org/dc/elements/1.1/"
   xmlns:cc="http://creativecommons.org/ns#"
   xmlns:rdf="http://www.w3.org/1999/02/22-rdf-syntax-ns#"
   xmlns:svg="http://www.w3.org/2000/svg"
   xmlns="http://www.w3.org/2000/svg"
   xmlns:xlink="http://www.w3.org/1999/xlink"
   xmlns:sodipodi="http://sodipodi.sourceforge.net/DTD/sodipodi-0.dtd"
   xmlns:inkscape="http://www.inkscape.org/namespaces/inkscape"
   width="66.145828mm"
   height="66.145828mm"
   viewBox="0 0 66.145828 66.145828"
   version="1.1"
   id="svg8"
   inkscape:version="0.92.3 (2405546, 2018-03-11)"
   sodipodi:docname="drawing.svg">
  <defs
     id="defs2">
    <linearGradient
       inkscape:collect="always"
       id="linearGradient1655-3">
      <stop
         style="stop-color:#000000;stop-opacity:1;"
         offset="0"
         id="stop1651" />
      <stop
         style="stop-color:#ff9900;stop-opacity:0"
         offset="1"
         id="stop1653" />
    </linearGradient>
    <linearGradient
       inkscape:collect="always"
       xlink:href="#linearGradient1655-3"
       id="linearGradient1657"
       x1="-105.51801"
       y1="87.834862"
       x2="-136.9489"
       y2="115.89816"
       gradientUnits="userSpaceOnUse"
       gradientTransform="matrix(0.64991425,0,0,0.64991425,-4146.1621,739.51517)" />
  </defs>
  <sodipodi:namedview
     id="base"
     pagecolor="#ffffff"
     bordercolor="#666666"
     borderopacity="1.0"
     inkscape:pageopacity="0.0"
     inkscape:pageshadow="2"
     inkscape:zoom="1"
     inkscape:cx="128.42254"
     inkscape:cy="185.56544"
     inkscape:document-units="px"
     inkscape:current-layer="layer1"
     showgrid="false"
     showborder="false"
     inkscape:window-width="1366"
     inkscape:window-height="641"
     inkscape:window-x="0"
     inkscape:window-y="33"
     inkscape:window-maximized="1"
     fit-margin-top="0"
     fit-margin-left="0"
     fit-margin-right="0"
     fit-margin-bottom="0" />
  <metadata
     id="metadata5">
    <rdf:RDF>
      <cc:Work
         rdf:about="">
        <dc:format>image/svg+xml</dc:format>
        <dc:type
           rdf:resource="http://purl.org/dc/dcmitype/StillImage" />
        <dc:title></dc:title>
      </cc:Work>
    </rdf:RDF>
  </metadata>
  <g
     inkscape:label="Layer 1"
     inkscape:groupmode="layer"
     id="layer1"
     style="opacity:1"
     transform="translate(4251.7036,-765.22967)">
    <rect
       style="opacity:1;fill:#ff7f2a;fill-opacity:1;fill-rule:nonzero;stroke:url(#linearGradient1657);stroke-width:0;stroke-linecap:square;stroke-linejoin:round;stroke-miterlimit:4;stroke-dasharray:none;stroke-dashoffset:0;stroke-opacity:0.99607843;paint-order:markers stroke fill"
       id="rect1649"
       width="66.145828"
       height="66.145828"
       x="-4251.7036"
       y="765.22968"
       rx="18.238741"
       ry="18.238741"
       inkscape:export-xdpi="96"
       inkscape:export-ydpi="96" />
    <path
       style="opacity:1;fill:#000000;fill-opacity:1;fill-rule:nonzero;stroke:#ff9900;stroke-width:0;stroke-linecap:square;stroke-linejoin:round;stroke-miterlimit:4;stroke-dasharray:none;stroke-dashoffset:0;stroke-opacity:0;paint-order:markers stroke fill"
       d="m -4201.999,771.82272 c -0.9645,0 -1.9289,0.36978 -2.668,1.10884 l -12.5648,12.56482 c -1.4781,1.47811 -1.4781,3.85799 0,5.3361 l 1.9189,1.91887 -1.7729,1.77287 -0.7245,5.19208 4.7309,-4.73136 1.9189,1.91888 c 1.4781,1.47811 3.858,1.47812 5.3361,0 l 12.5648,-12.56482 c 1.4782,-1.47811 1.4782,-3.85839 0,-5.3365 l -6.0713,-6.07094 c -0.7391,-0.73906 -1.7035,-1.10884 -2.6681,-1.10884 z m -7e-4,4.92869 c 0.6736,0 1.3471,0.25772 1.8632,0.77384 l 2.2829,2.28292 c 1.0323,1.03224 1.0323,2.69451 0,3.72676 l -8.7748,8.7744 c -1.0323,1.03225 -2.6941,1.03264 -3.7264,4.2e-4 l -0.025,-0.0247 0.2705,-0.27054 c 0.5774,-0.57734 0.691,-1.39301 0.2551,-1.82897 l -0.6601,-0.66005 c -0.4359,-0.43595 -1.2512,-0.32191 -1.8286,0.25543 l -0.2705,0.27054 -0.025,-0.0247 c -1.0323,-1.03224 -1.0323,-2.69451 0,-3.72675 l 8.7747,-8.77441 c 0.5161,-0.51612 1.1896,-0.77418 1.8632,-0.77424 z m -27.4245,6.024 c -0.1146,0 -0.5606,1.08477 -1.7923,4.36015 -0.7685,2.04346 -0.9768,2.69859 -0.8769,2.76035 0.1242,0.0768 1.0836,0.3523 5.5656,1.5986 1.8674,0.51924 2.2917,0.61086 2.2917,0.49494 0,-0.11216 -0.5887,-1.20912 -2.3024,-4.29092 -2.1336,-3.83696 -2.7702,-4.92312 -2.8857,-4.92312 z m 10.274,13.81331 -5.0318,5.03173 -1.9189,-1.91888 c -1.4781,-1.47811 -3.8583,-1.47811 -5.3365,0 l -12.5644,12.56483 c -1.4781,1.4781 -1.4781,3.85798 0,5.3361 l 6.071,6.07134 c 1.4781,1.47811 3.8584,1.47812 5.3365,0 l 12.5644,-12.56482 c 1.4781,-1.4781 1.4781,-3.85798 0,-5.33611 l -1.9185,-1.91847 2.339,-2.33942 z m 18.3962,2.48304 c -0.043,0 -5.1677,3.4571 -6.9215,4.66889 l -1.4164,0.97873 0.3541,0.0736 c 0.2747,0.0571 4.3359,0.52355 7.2148,0.82875 v -4.2e-4 c 0.196,0.0208 0.5088,0.0455 0.695,0.0545 l 0.3386,0.0163 -0.062,-2.77547 c -0.057,-2.56239 -0.1248,-3.84492 -0.2025,-3.84492 z m -28.0161,4.44967 c 0.6736,0 1.3475,0.25811 1.8636,0.77423 l 0.025,0.0247 -0.01,0.006 c -0.5255,0.52548 -0.5979,1.29911 -0.1619,1.73506 l 0.66,0.66005 c 0.436,0.43597 1.2104,0.36395 1.7359,-0.16153 l 0.01,-0.006 0.025,0.0246 c 1.0323,1.03224 1.0319,2.69411 -3e-4,3.72636 l -8.7744,8.7748 c -1.0322,1.03224 -2.6945,1.03224 -3.7267,0 l -2.283,-2.28293 c -1.0322,-1.03224 -1.0319,-2.69411 3e-4,-3.72636 l 8.7744,-8.7744 c 0.5161,-0.51613 1.1896,-0.77458 1.8632,-0.77464 z m 14.7192,1.68693 c -0.011,-0.003 -0.018,-0.003 -0.022,0.003 -0.044,0.0682 -0.057,0.55954 -0.028,1.09172 0.029,0.53218 0.099,2.0676 0.1556,3.41205 0.1302,3.07933 0.2972,5.76672 0.3652,5.8768 v 4.1e-4 c 0.029,0.0464 0.1066,0.0529 0.1727,0.0143 0.2007,-0.117 5.2225,-3.96769 5.5155,-4.22926 0.06,-0.0539 -1.1107,-1.29859 -3.0006,-3.18924 -1.9579,-1.95863 -2.9923,-2.93445 -3.1586,-2.97997 z"
       id="rect1666"
       inkscape:connector-curvature="0"
       inkscape:export-xdpi="96"
       inkscape:export-ydpi="96" />
  </g>
</svg>
